<?xml version="1.0" encoding="utf-8"?>
<!-- Generator: Adobe Illustrator 22.1.0, SVG Export Plug-In . SVG Version: 6.00 Build 0)  -->
<svg version="1.1" xmlns="http://www.w3.org/2000/svg" xmlns:xlink="http://www.w3.org/1999/xlink" x="0px" y="0px"
	 viewBox="0 0 24 24" style="enable-background:new 0 0 24 24;" xml:space="preserve">
<g id="Layer_2">
</g>
<g id="Layer_1">
	<path d="M20,12c0-1.1,0.9-2,2-2V6c0-1.1-0.9-2-2-2H4C2.9,4,2,4.9,2,6v4c1.1,0,2,0.9,2,2s-0.9,2-2,2v4c0,1.1,0.9,2,2,2h16
		c1.1,0,2-0.9,2-2v-4C20.9,14,20,13.1,20,12z M9.5,8C10.3,8,11,8.7,11,9.5S10.3,11,9.5,11S8,10.3,8,9.5S8.7,8,9.5,8z M8.8,16.6
		l-1.4-1.4l7.8-7.8l1.4,1.4L8.8,16.6z M14.5,16c-0.8,0-1.5-0.7-1.5-1.5s0.7-1.5,1.5-1.5s1.5,0.7,1.5,1.5S15.3,16,14.5,16z"/>
</g>
</svg>
