<?xml version="1.0" encoding="UTF-8" standalone="no"?>
<svg
   xmlns:dc="http://purl.org/dc/elements/1.1/"
   xmlns:cc="http://creativecommons.org/ns#"
   xmlns:rdf="http://www.w3.org/1999/02/22-rdf-syntax-ns#"
   xmlns:svg="http://www.w3.org/2000/svg"
   xmlns="http://www.w3.org/2000/svg"
   xmlns:sodipodi="http://sodipodi.sourceforge.net/DTD/sodipodi-0.dtd"
   xmlns:inkscape="http://www.inkscape.org/namespaces/inkscape"
   version="1.1"
   id="Layer_1"
   x="0px"
   y="0px"
   viewBox="0 0 512 512"
   style="enable-background:new 0 0 512 512;"
   xml:space="preserve"
   sodipodi:docname="youtubeGrey.svg"
   inkscape:version="1.0 (4035a4fb49, 2020-05-01)"><metadata
   id="metadata13"><rdf:RDF><cc:Work
       rdf:about=""><dc:format>image/svg+xml</dc:format><dc:type
         rdf:resource="http://purl.org/dc/dcmitype/StillImage" /><dc:title /></cc:Work></rdf:RDF></metadata><defs
   id="defs11" /><sodipodi:namedview
   inkscape:document-rotation="0"
   pagecolor="#ffffff"
   bordercolor="#666666"
   borderopacity="1"
   objecttolerance="10"
   gridtolerance="10"
   guidetolerance="10"
   inkscape:pageopacity="0"
   inkscape:pageshadow="2"
   inkscape:window-width="1920"
   inkscape:window-height="1017"
   id="namedview9"
   showgrid="false"
   inkscape:zoom="1.6601562"
   inkscape:cx="256"
   inkscape:cy="280.09412"
   inkscape:window-x="1912"
   inkscape:window-y="-8"
   inkscape:window-maximized="1"
   inkscape:current-layer="Layer_1" />
<style
   type="text/css"
   id="style2">
	.st0{fill:#FF0000;}
</style>
<g
   id="g6"
   style="opacity:1;fill:#ffffff;fill-opacity:1">
	<path
   class="st0"
   d="M501.5,133.1c-5.9-21.9-23.2-39.2-45.1-45.1C416.3,77,256,77,256,77S95.7,77,55.7,87.5   c-21.5,5.9-39.2,23.6-45.1,45.5C0,173.2,0,256.2,0,256.2s0,83.5,10.5,123.1c5.9,21.9,23.2,39.2,45.1,45.1   c40.5,11,200.3,11,200.3,11s160.3,0,200.3-10.5c21.9-5.9,39.2-23.2,45.1-45.1C512,339.7,512,256.7,512,256.7   S512.4,173.2,501.5,133.1z M205,333V179.5l133.3,76.8L205,333z"
   id="path4"
   style="fill:#ffffff;fill-opacity:1" />
</g>
</svg>
